<svg width="33" height="32" viewBox="0 0 33 32" fill="none" xmlns="http://www.w3.org/2000/svg">
<path d="M0.25 16C0.25 7.16344 7.41344 0 16.25 0C25.0866 0 32.25 7.16344 32.25 16C32.25 24.8366 25.0866 32 16.25 32C7.41344 32 0.25 24.8366 0.25 16Z" fill="#F6F6F7"/>
<g clip-path="url(#clip0_1546_4664)">
<path d="M8.91663 8.66699H11.5833L13.37 17.5937C13.4309 17.9006 13.5979 18.1763 13.8417 18.3725C14.0854 18.5688 14.3904 18.673 14.7033 18.667H21.1833C21.4962 18.673 21.8012 18.5688 22.0449 18.3725C22.2887 18.1763 22.4557 17.9006 22.5166 17.5937L23.5833 12.0003H12.25M14.9166 22.0003C14.9166 22.3685 14.6181 22.667 14.25 22.667C13.8818 22.667 13.5833 22.3685 13.5833 22.0003C13.5833 21.6321 13.8818 21.3337 14.25 21.3337C14.6181 21.3337 14.9166 21.6321 14.9166 22.0003ZM22.25 22.0003C22.25 22.3685 21.9515 22.667 21.5833 22.667C21.2151 22.667 20.9166 22.3685 20.9166 22.0003C20.9166 21.6321 21.2151 21.3337 21.5833 21.3337C21.9515 21.3337 22.25 21.6321 22.25 22.0003Z" stroke="#1E1E1E" stroke-width="1.5" stroke-linecap="round" stroke-linejoin="round"/>
</g>
<defs>
<clipPath id="clip0_1546_4664">
<rect width="16" height="16" fill="white" transform="translate(8.25 8)"/>
</clipPath>
</defs>
</svg>
