<svg width="40" height="40" viewBox="0 0 40 40" fill="none" xmlns="http://www.w3.org/2000/svg">
<path d="M39.1726 18.8208C38.6718 18.6127 38.0954 18.7278 37.7122 19.1122C26.1902 29.8479 10.2657 13.8465 20.9476 2.29471C21.3308 1.91033 21.4454 1.33219 21.2381 0.829876C21.0306 0.327559 20.5419 0 19.9999 0C8.95228 0 0 8.96705 0 20.0628C0.96468 46.6416 39.0318 46.65 40 20.0626C39.9999 19.5191 39.6734 19.0289 39.1726 18.8208ZM19.9999 37.4369C-1.1782 36.8636 -3.56238 7.05216 17.0215 2.94561C13.4941 8.57569 14.1712 16.1169 19.0523 21.0133C25.7676 27.7499 34.025 24.9772 37.0625 23.0553C35.6446 31.2143 28.5329 37.4369 19.9999 37.4369Z" fill="black"/>
</svg>
