<svg width="46" height="46" viewBox="0 0 46 46" fill="none" xmlns="http://www.w3.org/2000/svg">
<path d="M33.8119 7.81711H35.1829V9.18806C35.2231 10.2711 36.7773 10.2702 36.8171 9.18806V7.81711H38.1881C39.2711 7.77691 39.2702 6.22271 38.1881 6.18289H36.8171V4.81194C36.7769 3.72894 35.2227 3.72976 35.1829 4.81194V6.18289H33.8119C32.729 6.22309 32.7298 7.77729 33.8119 7.81711Z" fill="black"/>
<path d="M30.8119 16.8171H32.1829V18.1881C32.2231 19.2711 33.7773 19.2702 33.8171 18.1881V16.8171H35.1881C36.2711 16.7769 36.2702 15.2227 35.1881 15.1829H33.8171V13.8119C33.7769 12.7289 32.2227 12.7298 32.1829 13.8119V15.1829H30.8119C29.729 15.2231 29.7298 16.7773 30.8119 16.8171Z" fill="black"/>
<path d="M42.4014 21.8714C41.8976 21.6628 41.3178 21.7781 40.9324 22.1636C29.3431 32.9282 13.3257 16.8837 24.0699 5.30088C24.4553 4.91546 24.5706 4.33578 24.3621 3.83211C24.1534 3.32844 23.6619 3 23.1167 3C12.0046 3 3 11.9912 3 23.1168C3.97031 49.767 42.2598 49.7754 43.2336 23.1165C43.2335 22.5716 42.905 22.0801 42.4014 21.8714ZM23.1167 40.5376C1.81492 39.9627 -0.583185 10.0711 20.1209 5.95353C16.5729 11.5987 17.2539 19.1602 22.1635 24.0698C28.9181 30.8245 37.2237 28.0444 40.279 26.1173C38.8527 34.2982 31.6995 40.5376 23.1167 40.5376Z" fill="black"/>
</svg>
