<svg width="50" height="50" viewBox="0 0 50 50" fill="none" xmlns="http://www.w3.org/2000/svg">
<path d="M25 10.8379C17.187 10.8379 10.8379 17.187 10.8379 25C10.8379 32.813 17.187 39.1621 25 39.1621C32.813 39.1621 39.1621 32.813 39.1621 25C39.1621 17.187 32.813 10.8379 25 10.8379ZM25 12.5996C31.8354 12.5996 37.4004 18.1646 37.4004 25C37.4004 31.8354 31.8354 37.4004 25 37.4004C18.1646 37.4004 12.5996 31.8354 12.5996 25C12.5996 18.1646 18.1646 12.5996 25 12.5996Z" fill="black" stroke="black" stroke-width="0.2"/>
<path d="M21.9131 15.29C21.7276 14.8396 21.2074 14.6288 20.7588 14.8135L20.7598 14.8174C18.0901 15.9222 15.9252 18.0882 14.8223 20.7588C14.6385 21.2051 14.8462 21.7203 15.292 21.9082L15.291 21.9092C15.4029 21.9651 15.5214 21.9824 15.6328 21.9824C15.9767 21.9824 16.3034 21.7798 16.4443 21.4365C17.3717 19.1955 19.1955 17.3707 21.4365 16.4434C21.8869 16.2579 22.0976 15.7386 21.9131 15.29Z" fill="black" stroke="black" stroke-width="0.2"/>
<path d="M25 1.46289C24.5151 1.46289 24.1191 1.85883 24.1191 2.34375V7.03125C24.1191 7.51617 24.5151 7.91211 25 7.91211C25.4849 7.91211 25.8809 7.51617 25.8809 7.03125V2.34375C25.8809 1.85883 25.4849 1.46289 25 1.46289Z" fill="black" stroke="black" stroke-width="0.2"/>
<path d="M25 42.0879C24.5151 42.0879 24.1191 42.4838 24.1191 42.9688V47.6562C24.1191 48.1412 24.5151 48.5371 25 48.5371C25.4849 48.5371 25.8809 48.1412 25.8809 47.6562V42.9688C25.8809 42.4838 25.4849 42.0879 25 42.0879Z" fill="black" stroke="black" stroke-width="0.2"/>
<path d="M2.34375 24.1191C1.85883 24.1191 1.46289 24.5151 1.46289 25C1.46289 25.4849 1.85883 25.8809 2.34375 25.8809H7.03125C7.51617 25.8809 7.91211 25.4849 7.91211 25C7.91211 24.5151 7.51617 24.1191 7.03125 24.1191H2.34375Z" fill="black" stroke="black" stroke-width="0.2"/>
<path d="M42.9688 24.1191C42.4838 24.1191 42.0879 24.5151 42.0879 25C42.0879 25.4849 42.4838 25.8809 42.9688 25.8809H47.6562C48.1412 25.8809 48.5371 25.4849 48.5371 25C48.5371 24.5151 48.1412 24.1191 47.6562 24.1191H42.9688Z" fill="black" stroke="black" stroke-width="0.2"/>
<path d="M36.7686 4.60742C36.3466 4.37005 35.8091 4.51087 35.5625 4.93359L33.2188 8.99609L33.2178 8.99707C32.9804 9.41908 33.1212 9.95651 33.5439 10.2031L33.5449 10.2041C33.6857 10.2833 33.8356 10.3183 33.9844 10.3184C34.2927 10.3184 34.5834 10.1593 34.75 9.87891L34.751 9.87793L37.0947 5.81543L37.0957 5.81445C37.3331 5.39245 37.1923 4.855 36.7695 4.6084L36.7686 4.60742Z" fill="black" stroke="black" stroke-width="0.2"/>
<path d="M16.4561 39.7949C16.0341 39.5575 15.4966 39.6984 15.25 40.1211L12.9062 44.1836L12.9053 44.1846C12.6679 44.6066 12.8087 45.144 13.2314 45.3906L13.2324 45.3916C13.3732 45.4708 13.5231 45.5058 13.6719 45.5059C13.9802 45.5059 14.2709 45.3468 14.4375 45.0664L14.4385 45.0654L16.7822 41.0029L16.7832 41.002C17.0206 40.5799 16.8798 40.0425 16.457 39.7959L16.4561 39.7949Z" fill="black" stroke="black" stroke-width="0.2"/>
<path d="M5.81543 12.9043C5.39344 12.6669 4.856 12.8077 4.60938 13.2305L4.6084 13.2314C4.38589 13.627 4.49563 14.1239 4.8584 14.3877L4.93457 14.4375L8.99707 16.7812L8.99805 16.7822C9.13881 16.8614 9.28871 16.8964 9.4375 16.8965C9.74584 16.8965 10.0365 16.7375 10.2031 16.457L10.2051 16.4551C10.4424 16.0331 10.3017 15.4956 9.87891 15.249L5.81641 12.9053L5.81543 12.9043Z" fill="black" stroke="black" stroke-width="0.2"/>
<path d="M41.0029 33.2168C40.5809 32.9794 40.0435 33.1202 39.7969 33.543L39.7959 33.5439C39.5734 33.9395 39.6831 34.4364 40.0459 34.7002L40.1221 34.75L44.1846 37.0938L44.1855 37.0947C44.3263 37.1739 44.4762 37.2089 44.625 37.209C44.9333 37.209 45.224 37.05 45.3906 36.7695L45.3926 36.7676C45.6299 36.3456 45.4892 35.8081 45.0664 35.5615L41.0039 33.2178L41.0029 33.2168Z" fill="black" stroke="black" stroke-width="0.2"/>
<path d="M45.3906 13.2314C45.1451 12.8105 44.6086 12.6586 44.1846 12.9053L40.1221 15.249L40.1211 15.25C39.7001 15.4958 39.5485 16.033 39.7959 16.457H39.7969C39.9635 16.7376 40.2541 16.8975 40.5625 16.8975C40.7114 16.8974 40.8611 16.8614 41.002 16.7822H41.0029L45.0654 14.4385C45.4866 14.1928 45.6379 13.6556 45.3906 13.2314Z" fill="black" stroke="black" stroke-width="0.2"/>
<path d="M10.2109 33.5439C9.96538 33.123 9.4289 32.9711 9.00488 33.2178L4.94238 35.5615L4.94141 35.5625C4.52038 35.8083 4.36884 36.3455 4.61621 36.7695H4.61719C4.78379 37.0501 5.07438 37.21 5.38281 37.21C5.53166 37.2099 5.68144 37.1739 5.82227 37.0947H5.82324L9.88574 34.751C10.3069 34.5053 10.4582 33.9681 10.2109 33.5439Z" fill="black" stroke="black" stroke-width="0.2"/>
<path d="M14.4375 4.93457C14.1918 4.51333 13.6546 4.36195 13.2305 4.60938C12.8094 4.85518 12.6579 5.39235 12.9053 5.81641L15.249 9.87793L15.25 9.87891C15.4166 10.1595 15.7072 10.3193 16.0156 10.3193C16.1645 10.3193 16.3143 10.2833 16.4551 10.2041H16.4561C16.8771 9.95849 17.0291 9.42113 16.7822 8.99707L14.4385 4.93457H14.4375Z" fill="black" stroke="black" stroke-width="0.2"/>
<path d="M34.75 40.1221C34.5043 39.7008 33.9671 39.5495 33.543 39.7969C33.1219 40.0427 32.9704 40.5798 33.2178 41.0039L35.5615 45.0654L35.5625 45.0664C35.7291 45.347 36.0197 45.5068 36.3281 45.5068C36.477 45.5068 36.6268 45.4708 36.7676 45.3916H36.7686C37.1896 45.146 37.3416 44.6086 37.0947 44.1846L34.751 40.1221H34.75Z" fill="black" stroke="black" stroke-width="0.2"/>
</svg>
