<svg width="61" height="31" viewBox="0 0 61 31" fill="none" xmlns="http://www.w3.org/2000/svg">
<path d="M31.6586 7.5133V1.23169C31.6586 0.551373 31.0823 0 30.3713 0C29.6603 0 29.0841 0.551373 29.0841 1.23169V7.5133C29.0841 8.19361 29.6603 8.74498 30.3713 8.74498C31.0823 8.74498 31.6586 8.19361 31.6586 7.5133Z" fill="black"/>
<path d="M59.4628 27.8359H52.8979C52.1869 27.8359 51.6107 28.3873 51.6107 29.0676C51.6107 29.7479 52.1869 30.2993 52.8979 30.2993H59.4628C60.1738 30.2993 60.75 29.7479 60.75 29.0676C60.75 28.3873 60.1738 27.8359 59.4628 27.8359Z" fill="black"/>
<path d="M9.38937 29.0676C9.38937 28.3873 8.81313 27.8359 8.10214 27.8359H1.53724C0.826239 27.8359 0.25 28.3873 0.25 29.0676C0.25 29.7479 0.826239 30.2993 1.53724 30.2993H8.10214C8.81313 30.2993 9.38937 29.7479 9.38937 29.0676Z" fill="black"/>
<path d="M47.2672 14.6125L51.8334 10.2433C52.3327 9.76173 52.3307 8.9847 51.8294 8.5055C51.3286 8.02582 50.5165 8.02389 50.0132 8.50165L45.447 12.8708C45.1197 13.1811 44.9904 13.6358 45.1091 14.0625C45.2283 14.4888 45.5762 14.8218 46.0217 14.9358C46.4677 15.0493 46.9429 14.9257 47.2672 14.6125Z" fill="black"/>
<path d="M13.7327 14.6125C14.0571 14.9257 14.5322 15.0493 14.9782 14.9358C15.4237 14.8218 15.7717 14.4888 15.8909 14.0625C16.0095 13.6358 15.8803 13.1811 15.553 12.8708L10.9868 8.50165C10.4835 8.02389 9.6714 8.02582 9.17058 8.5055C8.66927 8.9847 8.66725 9.76173 9.16656 10.2433L13.7327 14.6125Z" fill="black"/>
<path d="M57.532 37.0746H44.9558C49.1147 30.3292 47.5826 21.6963 41.3285 16.6435C35.0748 11.5902 25.9239 11.5902 19.6702 16.6435C13.4166 21.6963 11.8839 30.3292 16.0433 37.0746H3.33942C2.62842 37.0746 2.05219 37.626 2.05219 38.3063C2.05219 38.9866 2.62842 39.538 3.33942 39.538H57.532C58.243 39.538 58.8193 38.9866 58.8193 38.3063C58.8193 37.626 58.243 37.0746 57.532 37.0746ZM16.2897 28.9147C16.2897 21.4052 22.652 15.3175 30.5001 15.3175C38.3482 15.3175 44.7105 21.4052 44.7105 28.9147C44.7225 31.8592 43.7234 34.7262 41.8665 37.0746H19.1342C17.2908 34.7195 16.2927 31.8572 16.2897 28.9147Z" fill="black"/>
</svg>
